<svg xmlns="http://www.w3.org/2000/svg" width="24" height="24" viewBox="0 0 24 24">
  <g>
    <path d="M0,15v6a3,3,0,0,0,3,3H24V22H3a1,1,0,0,1-1-1V15a1,1,0,0,1,1-1H24V12H3A3,3,0,0,0,0,15Z"/>
    <rect x="17" y="19" width="4" height="2"/>
    <rect x="22" y="19" width="2" height="2"/>
    <polygon points="8.544 16.121 7 16.623 7 15 5 15 5 16.623 3.456 16.121 2.838 18.023 4.382 18.525 3.428 19.839 5.045 21.015 6 19.701 6.955 21.015 8.573 19.839 7.618 18.525 9.162 18.023 8.544 16.121"/>
    <polygon points="15.691 16.121 14.147 16.623 14.147 15 12.147 15 12.147 16.623 10.603 16.121 9.985 18.023 11.529 18.525 10.574 19.839 12.193 21.015 13.147 19.701 14.103 21.015 15.721 19.839 14.766 18.525 16.31 18.023 15.691 16.121"/>
    <path d="M6,0A3,3,0,0,0,3,3V4H2v6h8V4H9V3A3,3,0,0,0,6,0ZM5,3A1,1,0,0,1,7,3V4H5Z"/>
  </g>
</svg>
